<svg xmlns="http://www.w3.org/2000/svg" xmlns:xlink="http://www.w3.org/1999/xlink" width="500" zoomAndPan="magnify" viewBox="0 0 375 374.999991" height="500" preserveAspectRatio="xMidYMid meet" version="1.0"><defs><clipPath id="2607657d5d"><path d="M 160.359375 64.261719 L 360.328125 64.261719 L 360.328125 264.226562 L 160.359375 264.226562 Z M 160.359375 64.261719 " clip-rule="nonzero"/></clipPath><clipPath id="60fcdac89e"><path d="M 260.34375 64.261719 C 205.125 64.261719 160.359375 109.027344 160.359375 164.246094 C 160.359375 219.464844 205.125 264.226562 260.34375 264.226562 C 315.5625 264.226562 360.328125 219.464844 360.328125 164.246094 C 360.328125 109.027344 315.5625 64.261719 260.34375 64.261719 Z M 260.34375 64.261719 " clip-rule="nonzero"/></clipPath><clipPath id="ec339c711a"><path d="M 33 76 L 330 76 L 330 324 L 33 324 Z M 33 76 " clip-rule="nonzero"/></clipPath><clipPath id="141df2f40d"><path d="M 14.675781 83.042969 L 318.121094 43.59375 L 350.414062 292.003906 L 46.96875 331.453125 Z M 14.675781 83.042969 " clip-rule="nonzero"/></clipPath><clipPath id="7f86969f8a"><path d="M 14.675781 83.042969 L 318.121094 43.59375 L 350.414062 292.003906 L 46.96875 331.453125 Z M 14.675781 83.042969 " clip-rule="nonzero"/></clipPath><clipPath id="9d16ef5f2b"><path d="M 291 112 L 300 112 L 300 121 L 291 121 Z M 291 112 " clip-rule="nonzero"/></clipPath><clipPath id="da5a72fa00"><path d="M 14.675781 83.042969 L 318.121094 43.59375 L 350.414062 292.003906 L 46.96875 331.453125 Z M 14.675781 83.042969 " clip-rule="nonzero"/></clipPath><clipPath id="03cb5e045e"><path d="M 14.675781 83.042969 L 318.121094 43.59375 L 350.414062 292.003906 L 46.96875 331.453125 Z M 14.675781 83.042969 " clip-rule="nonzero"/></clipPath><clipPath id="d36f11dd84"><path d="M 158 158 L 217 158 L 217 215 L 158 215 Z M 158 158 " clip-rule="nonzero"/></clipPath><clipPath id="b5f8ae3814"><path d="M 222.613281 171.589844 L 192.03125 220.492188 L 142.75 189.671875 L 173.332031 140.769531 Z M 222.613281 171.589844 " clip-rule="nonzero"/></clipPath><clipPath id="7fb136cb6b"><path d="M 198.578125 209.738281 C 204.359375 202.761719 201.167969 194.828125 194.5625 188.167969 C 203.40625 191.175781 211.949219 190.625 215.714844 182.339844 C 219.515625 173.992188 212.625 163.257812 202 159.761719 C 194.539062 157.308594 174.914062 156.160156 158.085938 165.359375 C 157.164062 184.546875 166.773438 201.636719 172.277344 207.292969 C 180.050781 215.34375 192.71875 216.84375 198.578125 209.738281 Z M 198.578125 209.738281 " clip-rule="nonzero"/></clipPath><clipPath id="493a7f0308"><path d="M 162 158 L 245 158 L 245 227 L 162 227 Z M 162 158 " clip-rule="nonzero"/></clipPath><clipPath id="51fb1a1d45"><path d="M 256.578125 184.828125 L 228.101562 240.175781 L 151.136719 200.570312 L 179.617188 145.226562 Z M 256.578125 184.828125 " clip-rule="nonzero"/></clipPath><clipPath id="370bacdae0"><path d="M 242.339844 212.5 C 250.203125 197.21875 239.363281 175.972656 218.128906 165.042969 C 196.894531 154.117188 173.304688 157.648438 165.4375 172.929688 C 157.574219 188.210938 168.414062 209.460938 189.648438 220.386719 C 210.886719 231.316406 234.476562 227.785156 242.339844 212.5 Z M 242.339844 212.5 " clip-rule="nonzero"/></clipPath></defs><g clip-path="url(#2607657d5d)"><g clip-path="url(#60fcdac89e)"><path fill="#e289f2" d="M 160.359375 64.261719 L 360.328125 64.261719 L 360.328125 264.226562 L 160.359375 264.226562 Z M 160.359375 64.261719 " fill-opacity="1" fill-rule="nonzero"/></g></g><g clip-path="url(#ec339c711a)"><g clip-path="url(#141df2f40d)"><g clip-path="url(#7f86969f8a)"><path fill="#10002b" d="M 64.152344 76.636719 C 63.972656 76.660156 63.824219 76.71875 63.675781 76.792969 C 63.179688 76.875 62.894531 77.101562 62.769531 77.472656 C 61.992188 78.207031 62.164062 78.667969 64.035156 82.867188 C 64.667969 84.285156 66.261719 89.976562 67.585938 95.511719 C 71.175781 110.539062 74.039062 119.585938 78.238281 129.207031 C 86.046875 147.113281 98.929688 163.644531 113.578125 176.96875 C 119.246094 182.125 124.003906 184.390625 133.261719 188.839844 C 142.523438 193.285156 146.675781 195.226562 146.746094 195.679688 C 146.824219 196.164062 142.996094 198.804688 137.679688 201.933594 L 133.6875 204.277344 L 124.179688 205.5 C 113.816406 206.832031 108.164062 206.871094 98.207031 205.679688 C 90.875 204.804688 86.910156 203.578125 67.34375 196.1875 C 57.398438 192.429688 48.519531 189.195312 47.609375 189.003906 C 46.113281 188.6875 45.859375 188.757812 44.90625 189.675781 C 43.410156 191.125 40.445312 197.128906 39.722656 200.207031 C 39.183594 202.503906 39.210938 203.386719 39.9375 207.523438 C 40.386719 210.109375 40.898438 212.390625 41.066406 212.597656 C 41.234375 212.808594 41.03125 212.929688 40.605469 212.875 C 39.386719 212.71875 36.367188 215.679688 35.066406 218.292969 C 33.339844 221.761719 33.28125 226.070312 34.875 232.214844 C 35.835938 235.914062 36.40625 237.273438 38.035156 239.699219 C 39.132812 241.328125 40.777344 243.222656 41.699219 243.90625 L 43.363281 245.15625 L 41.726562 247.527344 C 40.824219 248.839844 39.710938 250.949219 39.246094 252.203125 C 38.628906 253.863281 38.488281 254.597656 38.761719 257.140625 C 38.714844 258.664062 38.921875 260.179688 39.355469 261.71875 C 39.773438 264.558594 40.078125 265.179688 41.425781 267.199219 C 43.519531 270.335938 46.003906 272.671875 50.101562 275.375 C 53.023438 277.304688 53.203125 277.523438 53.050781 278.761719 C 52.960938 279.492188 53.148438 282.089844 53.464844 284.535156 C 54.007812 288.699219 54.160156 289.144531 55.777344 291.582031 C 58.726562 296.011719 62.980469 298.5 70.742188 300.320312 L 74.980469 301.316406 L 75.78125 303.132812 C 76.214844 304.125 77.125 305.734375 77.804688 306.707031 C 78.484375 307.683594 79.488281 309.527344 80.042969 310.808594 C 81.425781 314.007812 84.886719 317.128906 89.683594 319.488281 C 94.164062 321.695312 99.746094 323.601562 101.261719 323.449219 C 101.359375 323.4375 101.480469 323.4375 101.59375 323.433594 C 101.773438 323.46875 101.9375 323.496094 102.089844 323.515625 C 102.816406 323.617188 103.355469 323.6875 103.808594 323.722656 C 104.808594 323.890625 105.6875 323.683594 107.304688 322.957031 C 109.789062 321.84375 111.523438 318.363281 117.160156 303.109375 C 124.988281 281.914062 127.570312 275.941406 131.882812 269.105469 C 134.265625 265.332031 136.601562 263.058594 140.097656 261.125 C 143.058594 259.484375 152.34375 257.976562 158.03125 258.214844 C 160.246094 258.308594 162.21875 258.257812 162.40625 258.101562 C 162.597656 257.949219 163.714844 258.167969 164.902344 258.582031 C 166.085938 258.996094 168.234375 259.507812 169.679688 259.71875 C 171.125 259.933594 175.671875 260.707031 179.785156 261.441406 C 194.808594 264.117188 201.503906 264.648438 210.824219 263.890625 C 230.824219 262.261719 249.664062 253.492188 260.992188 240.53125 C 267.5 233.089844 271.640625 225.53125 276.121094 212.933594 C 280.367188 201.003906 282.609375 191.09375 284.566406 175.640625 C 286.550781 159.9375 288.851562 150.359375 291.917969 145.039062 C 294.613281 140.367188 299.8125 136.902344 306.921875 135.046875 C 310.1875 134.191406 311.585938 134.054688 316.890625 134.070312 C 320.28125 134.082031 324.480469 133.910156 326.210938 133.691406 C 329.222656 133.3125 329.367188 133.246094 329.496094 132.203125 C 329.71875 130.371094 328.363281 129.042969 323.660156 126.449219 C 314.527344 121.417969 312.417969 119.664062 306.941406 112.605469 C 302.878906 107.363281 301.261719 106.089844 296.925781 104.644531 C 289.460938 102.160156 279.066406 102.324219 273.789062 105.023438 C 268.644531 107.648438 263.457031 112.207031 259.28125 117.769531 C 255.445312 122.875 246.691406 133.015625 243.78125 135.707031 C 242.304688 137.074219 239.914062 139 238.46875 139.984375 C 234.75 143.695312 229.285156 144.699219 224.8125 145.007812 C 223.3125 144.964844 221.871094 144.824219 220.792969 144.457031 C 212.0625 141.492188 202.558594 137.445312 197.21875 129.609375 C 196.265625 128.210938 193.945312 124.359375 192.0625 121.042969 C 188.023438 113.921875 184.457031 109.632812 178.574219 104.859375 C 173.746094 100.941406 170.488281 99.46875 160.960938 96.8125 C 150.730469 93.960938 141.925781 92.308594 111.417969 87.527344 C 89.449219 84.089844 84.25 82.957031 75.261719 79.675781 C 71.46875 78.292969 67.378906 77 66.160156 76.804688 C 65.160156 76.644531 64.585938 76.574219 64.152344 76.636719 Z M 43.125 213.253906 C 43.355469 213.226562 43.570312 213.378906 43.597656 213.597656 C 43.628906 213.816406 43.476562 214.136719 43.261719 214.3125 C 43.046875 214.484375 42.835938 214.332031 42.789062 213.96875 C 42.742188 213.609375 42.890625 213.285156 43.125 213.253906 Z M 43.125 213.253906 " fill-opacity="1" fill-rule="nonzero"/></g></g></g><g clip-path="url(#9d16ef5f2b)"><g clip-path="url(#da5a72fa00)"><g clip-path="url(#03cb5e045e)"><path fill="#ffffff" d="M 299 115.632812 C 299.035156 115.894531 299.042969 116.15625 299.027344 116.417969 C 299.011719 116.679688 298.96875 116.9375 298.898438 117.191406 C 298.832031 117.445312 298.738281 117.691406 298.625 117.925781 C 298.507812 118.160156 298.367188 118.382812 298.207031 118.589844 C 298.046875 118.800781 297.871094 118.992188 297.671875 119.164062 C 297.472656 119.335938 297.261719 119.488281 297.035156 119.621094 C 296.804688 119.75 296.566406 119.859375 296.320312 119.941406 C 296.070312 120.027344 295.816406 120.085938 295.554688 120.121094 C 295.292969 120.152344 295.03125 120.160156 294.769531 120.144531 C 294.507812 120.125 294.25 120.082031 293.996094 120.015625 C 293.742188 119.945312 293.5 119.855469 293.261719 119.738281 C 293.027344 119.621094 292.804688 119.480469 292.597656 119.320312 C 292.390625 119.160156 292.199219 118.980469 292.027344 118.785156 C 291.855469 118.585938 291.703125 118.371094 291.570312 118.144531 C 291.441406 117.917969 291.332031 117.675781 291.25 117.429688 C 291.167969 117.179688 291.109375 116.925781 291.074219 116.664062 C 291.039062 116.402344 291.03125 116.140625 291.050781 115.878906 C 291.066406 115.617188 291.109375 115.359375 291.175781 115.105469 C 291.246094 114.851562 291.335938 114.605469 291.453125 114.371094 C 291.570312 114.136719 291.707031 113.914062 291.867188 113.707031 C 292.027344 113.496094 292.207031 113.308594 292.40625 113.132812 C 292.601562 112.960938 292.816406 112.808594 293.042969 112.675781 C 293.269531 112.546875 293.507812 112.4375 293.757812 112.355469 C 294.007812 112.269531 294.261719 112.210938 294.523438 112.175781 C 294.78125 112.144531 295.042969 112.136719 295.304688 112.152344 C 295.566406 112.171875 295.824219 112.214844 296.078125 112.28125 C 296.332031 112.351562 296.578125 112.445312 296.8125 112.558594 C 297.046875 112.675781 297.269531 112.816406 297.480469 112.976562 C 297.6875 113.136719 297.878906 113.316406 298.050781 113.515625 C 298.222656 113.710938 298.375 113.925781 298.503906 114.152344 C 298.636719 114.382812 298.742188 114.621094 298.828125 114.867188 C 298.910156 115.117188 298.96875 115.371094 299 115.632812 Z M 299 115.632812 " fill-opacity="1" fill-rule="nonzero"/></g></g></g><g clip-path="url(#d36f11dd84)"><g clip-path="url(#b5f8ae3814)"><g clip-path="url(#7fb136cb6b)"><path fill="#d56e80" d="M 222.496094 171.78125 L 192.03125 220.492188 L 142.941406 189.789062 L 173.402344 141.078125 Z M 222.496094 171.78125 " fill-opacity="1" fill-rule="nonzero"/></g></g></g><g clip-path="url(#493a7f0308)"><g clip-path="url(#51fb1a1d45)"><g clip-path="url(#370bacdae0)"><path fill="#d56e80" d="M 256.578125 184.828125 L 228.101562 240.175781 L 151.136719 200.570312 L 179.617188 145.226562 Z M 256.578125 184.828125 " fill-opacity="1" fill-rule="nonzero"/></g></g></g></svg>